<svg xmlns="http://www.w3.org/2000/svg" data-name="Layer 1" viewBox="0 0 100 125" x="0px" y="0px"><title>84</title><g data-name="Group"><path data-name="Compound Path" d="M71.3,73.6h1.4a5,5,0,0,0,5-4.9h4.8a5,5,0,0,0,5-5V56.8h7.5a1,1,0,0,0,1-1V44.2a1,1,0,0,0-1-1H87.5V36.3a5,5,0,0,0-5-5H77.7a5,5,0,0,0-5-4.9H71.3a5,5,0,0,0-5,5V43.2H33.7V31.4a5,5,0,0,0-5-5H27.3a5,5,0,0,0-5,4.9H17.5a5,5,0,0,0-5,5v6.9H5.1a1,1,0,0,0-1,1V55.8a1,1,0,0,0,1,1h7.5v6.9a5,5,0,0,0,5,5h4.8a5,5,0,0,0,5,4.9h1.4a5,5,0,0,0,5-5V56.8H66.3V68.6A5,5,0,0,0,71.3,73.6ZM93.9,45.2v9.7H87.5V45.2Zm-8.5-8.9V63.7a3,3,0,0,1-3,3H77.7V33.3h4.8A3,3,0,0,1,85.5,36.3ZM68.3,31.4a3,3,0,0,1,3-3h1.4a3,3,0,0,1,3,3V68.6a3,3,0,0,1-3,3H71.3a3,3,0,0,1-3-3ZM6.1,54.8V45.2h6.5v9.7Zm8.5,8.9V36.3a3,3,0,0,1,3-3h4.8V66.7H17.5A3,3,0,0,1,14.5,63.7Zm17.2,4.9a3,3,0,0,1-3,3H27.3a3,3,0,0,1-3-3V31.4a3,3,0,0,1,3-3h1.4a3,3,0,0,1,3,3Zm2-13.8V45.2H66.3v9.7Z"/></g><text x="0" y="115" fill="#000000" font-size="5px" font-weight="bold" font-family="'Helvetica Neue', Helvetica, Arial-Unicode, Arial, Sans-serif">Created by Jugalbandi</text><text x="0" y="120" fill="#000000" font-size="5px" font-weight="bold" font-family="'Helvetica Neue', Helvetica, Arial-Unicode, Arial, Sans-serif">from the Noun Project</text></svg>